<svg xmlns="http://www.w3.org/2000/svg" version="1.1" xmlns:xlink="http://www.w3.org/1999/xlink" xmlns:svgjs="http://svgjs.dev/svgjs" width="1000" height="1000" viewBox="0 0 1000 1000"><rect width="1000" height="1000" fill="#ffffff"></rect><g transform="matrix(0.7,0,0,0.7,149.57575757575756,470.77640130192054)"><svg viewBox="0 0 396 33" data-background-color="#ffffff" preserveAspectRatio="xMidYMid meet" height="83" width="1000" xmlns="http://www.w3.org/2000/svg" xmlns:xlink="http://www.w3.org/1999/xlink"><defs></defs><g id="tight-bounds" transform="matrix(1,0,0,1,0.2400000000000091,0.09860249259196507)"><svg viewBox="0 0 395.52 32.80279245224041" height="32.80279245224041" width="395.52"><g><svg viewBox="0 0 519.7278523359736 43.10407785150079" height="32.80279245224041" width="395.52"><g transform="matrix(1,0,0,1,0,5.957220600315955)"><svg viewBox="0 0 395.52000000000004 31.18963665086888" height="31.18963665086888" width="395.52000000000004"><g><svg viewBox="0 0 395.52000000000004 31.18963665086888" height="31.18963665086888" width="395.52000000000004"><g><svg viewBox="0 0 395.52000000000004 31.18963665086888" height="31.18963665086888" width="395.52000000000004"><g transform="matrix(1,0,0,1,0,0)"><svg width="395.52000000000004" viewBox="3.5 -29.450000762939453 379.7799987792969 29.950000762939453" height="31.18963665086888" data-palette-color="#010c80"><path d="M26.55 0L13.65 0Q8.3 0 5.9-2.35 3.5-4.7 3.5-9.95L3.5-9.95 3.5-19.1Q3.5-24.5 6.15-26.98 8.8-29.45 13.65-29.45L13.65-29.45 28.25-29.45Q31.7-29.45 33.52-29.08 35.35-28.7 35.35-28.3L35.35-28.3 33.8-22.05Q32.55-22.2 28.93-22.38 25.3-22.55 19.8-22.55L19.8-22.55 17.25-22.55Q14.9-22.55 14.08-21.68 13.25-20.8 13.25-19L13.25-19 13.25-10.45Q13.25-8.75 13.98-7.83 14.7-6.9 17.25-6.9L17.25-6.9 19.3-6.9Q26.45-6.9 30.2-7.08 33.95-7.25 34.7-7.45L34.7-7.45 37.75-2.05Q37.75-1.8 36.73-1.3 35.7-0.8 33.27-0.4 30.85 0 26.55 0L26.55 0ZM49.65 0L39.15 0 53.8-29.4 66.8-29.4 81.4 0 70.65 0 68.2-5.35 52.4-5.35 49.65 0ZM60.05-22.9L55.15-12.25 65.4-12.25 60.55-22.9 60.05-22.9ZM118.25 0.5L118.25 0.5Q116.25 0.5 113.8-0.13 111.35-0.75 108.95-3.2L108.95-3.2 106.85-5.3Q105.35-6.8 103.97-7.75 102.6-8.7 100.85-9.18 99.1-9.65 96.45-9.65L96.45-9.65 96.05-9.65 96.05 0 86.3 0 86.3-25.4 85.8-29.45 108.95-29.45Q112.15-29.45 114.12-28.68 116.1-27.9 117.17-26.63 118.25-25.35 118.65-23.75 119.05-22.15 119.05-20.5L119.05-20.5 119.05-19.55Q119.05-16.55 117.52-14.18 116-11.8 112.7-10.8L112.7-10.8Q113.95-10.05 115.07-9.28 116.2-8.5 117.65-7.65L117.65-7.65Q119.3-6.7 120.72-6.28 122.15-5.85 123.1-5.75 124.05-5.65 124.2-5.65L124.2-5.65 122.7 0Q122.1 0.15 120.87 0.33 119.65 0.5 118.25 0.5ZM101.85-16.3L101.85-16.3Q103.1-16.3 104.27-16.35 105.45-16.4 106.4-16.5L106.4-16.5Q108.1-16.7 108.72-17.57 109.35-18.45 109.35-19.7L109.35-19.7 109.35-20.25Q109.35-21.35 108.72-21.95 108.1-22.55 106.45-22.55L106.45-22.55 96.05-22.55 96.05-16.5Q97.3-16.45 98.8-16.38 100.3-16.3 101.85-16.3ZM153.49 0L128.69 0 128.69-29.45 151.49-29.45Q156.19-29.45 158.34-27.58 160.49-25.7 160.49-23.05L160.49-23.05 160.49-21.55Q160.49-19.5 159.62-18.18 158.74-16.85 157.74-16.3L157.74-16.3Q159.94-15.6 161.24-13.88 162.54-12.15 162.54-9.35L162.54-9.35 162.54-8.45Q162.54-6.95 162.19-5.45 161.84-3.95 160.87-2.73 159.89-1.5 158.12-0.75 156.34 0 153.49 0L153.49 0ZM138.44-22.6L138.44-18.1 148.44-18.1Q149.74-18.1 150.24-18.65 150.74-19.2 150.74-20.15L150.74-20.15 150.74-20.65Q150.74-21.7 150.24-22.15 149.74-22.6 147.99-22.6L147.99-22.6 138.44-22.6ZM138.44-11.75L138.44-6.85 150.49-6.85Q151.79-6.85 152.29-7.33 152.79-7.8 152.79-8.85L152.79-8.85 152.79-9.75Q152.79-10.7 152.14-11.23 151.49-11.75 149.89-11.75L149.89-11.75 138.44-11.75ZM179.14 0L169.54 0 169.54-29.4 179.14-29.4 179.14 0ZM205.74 0L196.04 0 196.04-22.65 184.14-22.65 184.14-29.45 217.79-29.45 217.79-22.65 205.74-22.65 205.74 0ZM255.24 0.5L255.24 0.5Q253.24 0.5 250.79-0.13 248.34-0.75 245.94-3.2L245.94-3.2 243.84-5.3Q242.34-6.8 240.96-7.75 239.59-8.7 237.84-9.18 236.09-9.65 233.44-9.65L233.44-9.65 233.04-9.65 233.04 0 223.29 0 223.29-25.4 222.79-29.45 245.94-29.45Q249.14-29.45 251.11-28.68 253.09-27.9 254.16-26.63 255.24-25.35 255.64-23.75 256.04-22.15 256.04-20.5L256.04-20.5 256.04-19.55Q256.04-16.55 254.51-14.18 252.99-11.8 249.69-10.8L249.69-10.8Q250.94-10.05 252.06-9.28 253.19-8.5 254.64-7.65L254.64-7.65Q256.29-6.7 257.71-6.28 259.14-5.85 260.09-5.75 261.04-5.65 261.19-5.65L261.19-5.65 259.69 0Q259.09 0.15 257.86 0.33 256.64 0.5 255.24 0.5ZM238.84-16.3L238.84-16.3Q240.09-16.3 241.26-16.35 242.44-16.4 243.39-16.5L243.39-16.5Q245.09-16.7 245.71-17.57 246.34-18.45 246.34-19.7L246.34-19.7 246.34-20.25Q246.34-21.35 245.71-21.95 245.09-22.55 243.44-22.55L243.44-22.55 233.04-22.55 233.04-16.5Q234.29-16.45 235.79-16.38 237.29-16.3 238.84-16.3ZM272.58 0L262.08 0 276.73-29.4 289.73-29.4 304.33 0 293.58 0 291.13-5.35 275.33-5.35 272.58 0ZM282.98-22.9L278.08-12.25 288.33-12.25 283.48-22.9 282.98-22.9ZM332.78 0L316.88 0Q311.53 0 309.13-2.35 306.73-4.7 306.73-9.95L306.73-9.95 306.73-19.1Q306.73-24.5 309.38-26.98 312.03-29.45 316.88-29.45L316.88-29.45 333.58-29.45Q337.03-29.45 338.86-29.08 340.68-28.7 340.68-28.3L340.68-28.3 339.13-22.05Q337.88-22.2 334.26-22.38 330.63-22.55 325.13-22.55L325.13-22.55 320.48-22.55Q318.13-22.55 317.31-21.68 316.48-20.8 316.48-19L316.48-19 316.48-10.45Q316.48-8.75 317.21-7.83 317.93-6.9 320.48-6.9L320.48-6.9 324.53-6.9Q326.83-6.9 328.68-6.93 330.53-6.95 331.93-7L331.93-7 331.93-10.8 329.93-10.75 323.38-10.25 323.38-17.15 341.48-17.15 341.48-2.1 341.98-1.05Q341.98-0.65 339.88-0.33 337.78 0 332.78 0L332.78 0ZM377.28 0L348.98 0 348.98-29.4 381.08-29.4 381.08-22.6 358.73-22.6 358.73-18.45 375.28-18.45 375.28-11.5 358.73-11.5 358.73-6.85 380.28-6.85 383.28-0.55Q383.28-0.35 381.93-0.18 380.58 0 377.28 0L377.28 0Z" opacity="1" transform="matrix(1,0,0,1,0,0)" fill="#000000" class="undefined-text-0" data-fill-palette-color="primary" id="text-0"></path></svg></g></svg></g></svg></g></svg></g><g transform="matrix(1,0,0,1,402.88312466199056,0)"><svg viewBox="0 0 116.84472767398304 43.10407785150079" height="43.10407785150079" width="116.84472767398304"><g><svg xmlns="http://www.w3.org/2000/svg" xmlns:xlink="http://www.w3.org/1999/xlink" version="1.1" x="0" y="0" viewBox="0.29627254605293274 33.946922302246094 99.40641021728516 36.67107391357422" enable-background="new 0 33.947 100 36.669" xml:space="preserve" width="116.84472767398304" height="43.10407785150079" class="icon-icon-0" data-fill-palette-color="accent" id="icon-0"><g fill="#77d4fc" data-fill-palette-color="accent"><path d="M15.524 55.357c-4.213 0-7.629 3.418-7.629 7.631s3.416 7.63 7.629 7.63c4.215 0 7.63-3.417 7.63-7.63S19.738 55.357 15.524 55.357zM15.524 66.189c-1.778 0-3.219-1.441-3.219-3.22s1.441-3.221 3.219-3.221c1.777 0 3.219 1.442 3.219 3.221C18.742 64.748 17.301 66.189 15.524 66.189z" fill="#000000" data-fill-palette-color="accent"></path><path d="M82.53 55.355c-4.215 0-7.632 3.417-7.632 7.629 0 4.214 3.417 7.631 7.632 7.631 4.212 0 7.63-3.417 7.63-7.631C90.16 58.772 86.742 55.355 82.53 55.355zM82.53 66.189c-1.778 0-3.222-1.441-3.222-3.22s1.443-3.221 3.222-3.221 3.223 1.442 3.223 3.221S84.309 66.189 82.53 66.189z" fill="#000000" data-fill-palette-color="accent"></path><path d="M78.23 44.515c0 0-18.764-8.75-24.754-10.018-5.987-1.268-26.597-0.115-28.554 1.151l-11.515 5.64L2.125 46.815 0.298 57.465c0 0-0.05 6.318 0.388 7.773h5.527l0.071-2.25c0-5.103 4.138-9.24 9.243-9.24 5.103 0 9.238 4.138 9.238 9.24l0.158 2.25h48.359l0.007-2.83c0-5.103 3.856-8.87 8.959-8.87s9.523 3.768 9.523 8.87l0.19 2.616c0 0 5.845 0.33 7.688-0.361 0 0 0.69-9.787-2.878-13.357C93.603 48.308 87.213 46.44 78.23 44.515zM25.956 45.896c0 0 2.363-5.01 4.943-6.924 1.911-1.627 12.446-1.583 12.446-1.583l0.389 9.715L25.956 45.896zM71.613 48.198l-24.698-0.978-0.577-9.846c9.154-0.344 19.576 4.549 25.563 8.06C77.89 48.946 71.613 48.198 71.613 48.198z" fill="#000000" data-fill-palette-color="accent"></path></g></svg></g></svg></g></svg></g></svg><rect width="395.52" height="32.80279245224041" fill="none" stroke="none" visibility="hidden"></rect></g></svg></g></svg>